<svg xmlns="http://www.w3.org/2000/svg" version="1.1" xmlns:xlink="http://www.w3.org/1999/xlink" xmlns:svgjs="http://svgjs.dev/svgjs" width="1000" height="625" viewBox="0 0 1000 625"><g transform="matrix(1,0,0,1,0,0)"><svg viewBox="0 0 512 320" data-background-color="#ffffff" preserveAspectRatio="xMidYMid meet" height="625" width="1000" xmlns="http://www.w3.org/2000/svg" xmlns:xlink="http://www.w3.org/1999/xlink"><g id="tight-bounds" transform="matrix(1,0,0,1,0,0)"><svg viewBox="0 0 512 320" height="320" width="512"><g><svg></svg></g><g><svg viewBox="0 0 512 320" height="320" width="512"><g><path d="M96 320l0-320 320 0 0 320z" fill="#000000" fill-rule="nonzero" stroke="none" stroke-width="1" stroke-linecap="butt" stroke-linejoin="miter" stroke-miterlimit="10" stroke-dasharray="" stroke-dashoffset="0" font-family="none" font-weight="none" font-size="none" text-anchor="none" style="mix-blend-mode: normal" data-fill-palette-color="tertiary"></path></g><g transform="matrix(1,0,0,1,140.8,97.30402295660386)"><svg viewBox="0 0 230.4 125.39195408679227" height="125.39195408679227" width="230.4"><g><svg viewBox="0 0 293.99015485861185 160.00000000000003" height="125.39195408679227" width="230.4"><g><svg viewBox="0 0 158.3547557840617 160.00000000000003" height="160.00000000000003" width="158.3547557840617"><g id="textblocktransform"><svg viewBox="0 0 158.3547557840617 160.00000000000003" height="160.00000000000003" width="158.3547557840617" id="textblock"><g><svg viewBox="0 0 158.3547557840617 160.00000000000003" height="160.00000000000003" width="158.3547557840617"><g transform="matrix(1,0,0,1,0,0)"><svg width="158.3547557840617" viewBox="1 -38.9 38.5 38.9" height="160.00000000000003" data-palette-color="#ffffff"><path d="M1 0L1-8.2 3.5-8.2 3.5-30.65 1-30.65 1-38.9 21.3-38.9Q29.65-38.9 34.58-34.33 39.5-29.75 39.5-19.45L39.5-19.45Q39.5-9.15 34.58-4.58 29.65 0 21.3 0L21.3 0 1 0ZM17.5-8.2L20.4-8.2Q22.1-8.2 22.95-9.1 23.8-10 23.8-11.9L23.8-11.9 23.8-27Q23.8-30.7 20.4-30.7L20.4-30.7 17.5-30.7 17.5-8.2Z" opacity="1" transform="matrix(1,0,0,1,0,0)" fill="#ffffff" class="wordmark-text-0" data-fill-palette-color="quaternary" id="text-0"></path></svg></g></svg></g></svg></g></svg></g><g transform="matrix(1,0,0,1,196.1269157840617,31.068380462724953)"><svg viewBox="0 0 97.86323907455012 97.86323907455012" height="97.86323907455012" width="97.86323907455012"><g data-palette-color="#ffffff"><rect width="26.7492853470437" height="97.86323907455012" fill="#ffffff" stroke="transparent" data-fill-palette-color="quaternary" x="0" fill-opacity="1"></rect><rect width="26.7492853470437" height="97.86323907455012" fill="#ffffff" stroke="transparent" data-fill-palette-color="quaternary" x="32.621079691516705" fill-opacity="0.75"></rect><rect width="26.7492853470437" height="97.86323907455012" fill="#ffffff" stroke="transparent" data-fill-palette-color="quaternary" x="65.24215938303341" fill-opacity="0.5"></rect></g></svg></g></svg></g></svg></g></svg></g><defs></defs></svg><rect width="512" height="320" fill="none" stroke="none" visibility="hidden"></rect></g></svg></g></svg>